<svg version="1" xmlns="http://www.w3.org/2000/svg" width="682.667" height="682.667" viewBox="0 0 512.000000 512.000000"><path d="M124.5 75c-30.8 4.3-57.3 23.1-71.2 50.5-9.7 19.1-13.4 40.2-11.3 65.4 3.5 42.6 19.3 80.4 50.1 119.3 9.9 12.4 40.9 43.7 56.9 57.2 6.3 5.4 20.9 17 32.4 25.9 22.8 17.6 47.4 37.3 54.7 43.6l4.6 4 27.6-19.7c50.8-36.3 77-57.5 105.6-85.6 56.3-55.3 87.3-108.9 95.6-165.1 2.3-15.3 2.3-33.3.1-41.5-8.1-30.5-41.8-50.1-86.1-50.2-36.9-.1-62 9.7-85.5 33.2-10.7 10.8-19 22.1-30.1 40.8l-7.5 12.9-2.8-6.9c-8.5-20.6-25-41.8-43.1-55.3-26.1-19.5-65.4-32-90-28.5z"/></svg>