<?xml version="1.0" standalone="no"?>
<!DOCTYPE svg PUBLIC "-//W3C//DTD SVG 20010904//EN"
 "http://www.w3.org/TR/2001/REC-SVG-20010904/DTD/svg10.dtd">
<svg version="1.0" xmlns="http://www.w3.org/2000/svg"
 width="512.000000pt" height="512.000000pt" viewBox="0 0 512.000000 512.000000"
 preserveAspectRatio="xMidYMid meet">
<metadata>
Created by potrace 1.11, written by Peter Selinger 2001-2013
</metadata>
<g transform="translate(0.000000,512.000000) scale(0.100000,-0.100000)"
fill="#000000" stroke="none">
<path d="M1175 4355 c-128 -29 -285 -100 -370 -168 -67 -53 -168 -160 -208
-220 -81 -121 -147 -292 -162 -415 -3 -26 -8 -59 -11 -75 -3 -15 -6 -71 -6
-125 0 -438 158 -899 465 -1362 56 -85 141 -203 173 -240 12 -14 57 -67 99
-118 404 -485 991 -899 1263 -891 335 10 1025 530 1530 1155 291 359 488 699
638 1099 4 11 8 22 9 25 1 3 11 37 23 75 74 241 111 556 82 704 -16 84 -72
189 -139 263 -115 125 -292 213 -511 253 -76 14 -390 15 -455 1 -103 -22 -137
-31 -200 -53 -274 -96 -484 -290 -694 -643 -109 -183 -99 -169 -107 -141 -16
53 -98 209 -156 295 -113 165 -310 339 -487 430 -108 56 -301 124 -426 152
-62 14 -289 13 -350 -1z"/>
</g>
</svg>
